HIERARCHY
ROOT mixamorig:Hips
{
  OFFSET 0.0485291 104.349 2.26454
  CHANNELS 6 Xposition Yposition Zposition Zrotation Xrotation Yrotation
  JOINT mixamorig:Spine
  {
    OFFSET 0 10.1824 0
    CHANNELS 3 Zrotation Xrotation Yrotation
    JOINT mixamorig:Spine1
    {
      OFFSET 0 10.0027 0
      CHANNELS 3 Zrotation Xrotation Yrotation
      JOINT mixamorig:Spine2
      {
        OFFSET 0 9.32208 0
        CHANNELS 3 Zrotation Xrotation Yrotation
        JOINT mixamorig:Neck
        {
          OFFSET 0 16.8657 0
          CHANNELS 3 Zrotation Xrotation Yrotation
          JOINT mixamorig:Head
          {
            OFFSET 0 9.34197 2.84106
            CHANNELS 3 Zrotation Xrotation Yrotation
            End Site
            {
              OFFSET 0 20.9628 10.1229
            }
          }
        }
        JOINT mixamorig:RightShoulder
        {
          OFFSET -4.56997 11.1958 -0.806633
          CHANNELS 3 Zrotation Xrotation Yrotation
          JOINT mixamorig:RightArm
          {
            OFFSET 0 10.8382 0
            CHANNELS 3 Zrotation Xrotation Yrotation
            JOINT mixamorig:RightForeArm
            {
              OFFSET 0 27.8415 0
              CHANNELS 3 Zrotation Xrotation Yrotation
              JOINT mixamorig:RightHand
              {
                OFFSET 3.81718e-05 28.3288 1.14529e-05
                CHANNELS 3 Zrotation Xrotation Yrotation
                JOINT mixamorig:RightHandThumb1
                {
                  OFFSET 2.68185 2.46481 1.57399
                  CHANNELS 3 Zrotation Xrotation Yrotation
                  JOINT mixamorig:RightHandThumb2
                  {
                    OFFSET 0 4.18898 0
                    CHANNELS 3 Zrotation Xrotation Yrotation
                    JOINT mixamorig:RightHandThumb3
                    {
                      OFFSET 0 3.41627 1.11832e-05
                      CHANNELS 3 Zrotation Xrotation Yrotation
                      JOINT mixamorig:RightHandThumb4
                      {
                        OFFSET 0 2.57497 0
                        CHANNELS 3 Zrotation Xrotation Yrotation
                        End Site
                        {
                          OFFSET 0 0 0
                        }
                      }
                    }
                  }
                }
                JOINT mixamorig:RightHandIndex1
                {
                  OFFSET 2.25983 9.10828 0.517873
                  CHANNELS 3 Zrotation Xrotation Yrotation
                  JOINT mixamorig:RightHandIndex2
                  {
                    OFFSET 0 3.7 0
                    CHANNELS 3 Zrotation Xrotation Yrotation
                    JOINT mixamorig:RightHandIndex3
                    {
                      OFFSET 0 2.85 0
                      CHANNELS 3 Zrotation Xrotation Yrotation
                      JOINT mixamorig:RightHandIndex4
                      {
                        OFFSET 0 2.77219 0
                        CHANNELS 3 Zrotation Xrotation Yrotation
                        End Site
                        {
                          OFFSET 0 0 0
                        }
                      }
                    }
                  }
                }
                JOINT mixamorig:RightHandMiddle1
                {
                  OFFSET -2.35541e-05 9.5325 4.98089e-05
                  CHANNELS 3 Zrotation Xrotation Yrotation
                  JOINT mixamorig:RightHandMiddle2
                  {
                    OFFSET 0 3.70001 0
                    CHANNELS 3 Zrotation Xrotation Yrotation
                    JOINT mixamorig:RightHandMiddle3
                    {
                      OFFSET 0 2.95 0
                      CHANNELS 3 Zrotation Xrotation Yrotation
                      JOINT mixamorig:RightHandMiddle4
                      {
                        OFFSET 0 2.94662 0
                        CHANNELS 3 Zrotation Xrotation Yrotation
                        End Site
                        {
                          OFFSET 0 0 0
                        }
                      }
                    }
                  }
                }
                JOINT mixamorig:RightHandRing1
                {
                  OFFSET -1.86513 9.10359 0.0430817
                  CHANNELS 3 Zrotation Xrotation Yrotation
                  JOINT mixamorig:RightHandRing2
                  {
                    OFFSET 0 3.37928 0
                    CHANNELS 3 Zrotation Xrotation Yrotation
                    JOINT mixamorig:RightHandRing3
                    {
                      OFFSET 0 2.88968 -1.51688e-05
                      CHANNELS 3 Zrotation Xrotation Yrotation
                      JOINT mixamorig:RightHandRing4
                      {
                        OFFSET 0 2.63882 0
                        CHANNELS 3 Zrotation Xrotation Yrotation
                        End Site
                        {
                          OFFSET 0 0 0
                        }
                      }
                    }
                  }
                }
                JOINT mixamorig:RightHandPinky1
                {
                  OFFSET -3.80628 8.07668 0.486717
                  CHANNELS 3 Zrotation Xrotation Yrotation
                  JOINT mixamorig:RightHandPinky2
                  {
                    OFFSET 0 3.6 0
                    CHANNELS 3 Zrotation Xrotation Yrotation
                    JOINT mixamorig:RightHandPinky3
                    {
                      OFFSET 0 2.1 0
                      CHANNELS 3 Zrotation Xrotation Yrotation
                      JOINT mixamorig:RightHandPinky4
                      {
                        OFFSET 0 2.11578 0
                        CHANNELS 3 Zrotation Xrotation Yrotation
                        End Site
                        {
                          OFFSET 0 0 0
                        }
                      }
                    }
                  }
                }
              }
            }
          }
        }
        JOINT mixamorig:LeftShoulder
        {
          OFFSET 4.57045 11.1957 -0.806627
          CHANNELS 3 Zrotation Xrotation Yrotation
          JOINT mixamorig:LeftArm
          {
            OFFSET 0 10.8377 0
            CHANNELS 3 Zrotation Xrotation Yrotation
            JOINT mixamorig:LeftForeArm
            {
              OFFSET 0 27.8415 -1.5211e-05
              CHANNELS 3 Zrotation Xrotation Yrotation
              JOINT mixamorig:LeftHand
              {
                OFFSET 1.87219e-05 28.3289 0
                CHANNELS 3 Zrotation Xrotation Yrotation
                JOINT mixamorig:LeftHandThumb1
                {
                  OFFSET -2.68173 2.46615 1.5762
                  CHANNELS 3 Zrotation Xrotation Yrotation
                  JOINT mixamorig:LeftHandThumb2
                  {
                    OFFSET 0 4.18709 0
                    CHANNELS 3 Zrotation Xrotation Yrotation
                    JOINT mixamorig:LeftHandThumb3
                    {
                      OFFSET 0 3.41839 -1.18805e-05
                      CHANNELS 3 Zrotation Xrotation Yrotation
                      JOINT mixamorig:LeftHandThumb4
                      {
                        OFFSET 0 2.58058 0
                        CHANNELS 3 Zrotation Xrotation Yrotation
                        End Site
                        {
                          OFFSET 0 0 0
                        }
                      }
                    }
                  }
                }
                JOINT mixamorig:LeftHandIndex1
                {
                  OFFSET -2.25986 9.10931 0.518033
                  CHANNELS 3 Zrotation Xrotation Yrotation
                  JOINT mixamorig:LeftHandIndex2
                  {
                    OFFSET 0 3.7 0
                    CHANNELS 3 Zrotation Xrotation Yrotation
                    JOINT mixamorig:LeftHandIndex3
                    {
                      OFFSET 0 2.85 -1.06953e-05
                      CHANNELS 3 Zrotation Xrotation Yrotation
                      JOINT mixamorig:LeftHandIndex4
                      {
                        OFFSET 0 2.77487 0
                        CHANNELS 3 Zrotation Xrotation Yrotation
                        End Site
                        {
                          OFFSET 0 0 0
                        }
                      }
                    }
                  }
                }
                JOINT mixamorig:LeftHandMiddle1
                {
                  OFFSET -3.63983e-05 9.5334 -3.13053e-05
                  CHANNELS 3 Zrotation Xrotation Yrotation
                  JOINT mixamorig:LeftHandMiddle2
                  {
                    OFFSET 0 3.69999 -1.06491e-05
                    CHANNELS 3 Zrotation Xrotation Yrotation
                    JOINT mixamorig:LeftHandMiddle3
                    {
                      OFFSET 0 2.95 0
                      CHANNELS 3 Zrotation Xrotation Yrotation
                      JOINT mixamorig:LeftHandMiddle4
                      {
                        OFFSET 0 2.95287 0
                        CHANNELS 3 Zrotation Xrotation Yrotation
                        End Site
                        {
                          OFFSET 0 0 0
                        }
                      }
                    }
                  }
                }
                JOINT mixamorig:LeftHandRing1
                {
                  OFFSET 1.86508 9.10453 0.0430286
                  CHANNELS 3 Zrotation Xrotation Yrotation
                  JOINT mixamorig:LeftHandRing2
                  {
                    OFFSET 0 3.15 0
                    CHANNELS 3 Zrotation Xrotation Yrotation
                    JOINT mixamorig:LeftHandRing3
                    {
                      OFFSET 0 2.95 0
                      CHANNELS 3 Zrotation Xrotation Yrotation
                      JOINT mixamorig:LeftHandRing4
                      {
                        OFFSET -2.4112e-05 2.64432 0
                        CHANNELS 3 Zrotation Xrotation Yrotation
                        End Site
                        {
                          OFFSET 0 0 0
                        }
                      }
                    }
                  }
                }
                JOINT mixamorig:LeftHandPinky1
                {
                  OFFSET 3.80626 8.07778 0.48688
                  CHANNELS 3 Zrotation Xrotation Yrotation
                  JOINT mixamorig:LeftHandPinky2
                  {
                    OFFSET 0 3.6 0
                    CHANNELS 3 Zrotation Xrotation Yrotation
                    JOINT mixamorig:LeftHandPinky3
                    {
                      OFFSET 0 2.1 0
                      CHANNELS 3 Zrotation Xrotation Yrotation
                      JOINT mixamorig:LeftHandPinky4
                      {
                        OFFSET 0 2.12553 0
                        CHANNELS 3 Zrotation Xrotation Yrotation
                        End Site
                        {
                          OFFSET 0 0 0
                        }
                      }
                    }
                  }
                }
              }
            }
          }
        }
      }
    }
  }
  JOINT mixamorig:RightUpLeg
  {
    OFFSET -8.20778 -6.77176 -1.51222
    CHANNELS 3 Zrotation Xrotation Yrotation
    JOINT mixamorig:RightLeg
    {
      OFFSET 0.002257 44.3715 0.0513078
      CHANNELS 3 Zrotation Xrotation Yrotation
      JOINT mixamorig:RightFoot
      {
        OFFSET 0 44.5279 0
        CHANNELS 3 Zrotation Xrotation Yrotation
        JOINT mixamorig:RightToeBase
        {
          OFFSET 0 13.8169 0
          CHANNELS 3 Zrotation Xrotation Yrotation
          End Site
          {
            OFFSET 0 9.27812 0
          }
        }
      }
    }
  }
  JOINT mixamorig:LeftUpLeg
  {
    OFFSET 8.20778 -6.7718 -1.51221
    CHANNELS 3 Zrotation Xrotation Yrotation
    JOINT mixamorig:LeftLeg
    {
      OFFSET 0.00186506 44.3715 0.0150867
      CHANNELS 3 Zrotation Xrotation Yrotation
      JOINT mixamorig:LeftFoot
      {
        OFFSET 0 44.5279 -1.7915e-05
        CHANNELS 3 Zrotation Xrotation Yrotation
        JOINT mixamorig:LeftToeBase
        {
          OFFSET 0 13.8169 0
          CHANNELS 3 Zrotation Xrotation Yrotation
          End Site
          {
            OFFSET 0 9.27814 0
          }
        }
      }
    }
  }
}
MOTION
Frames: 6
Frame Time: 0.033333
-7.55055 100.655 253.127 -3.9533 0.149538 -5.06732 1.19137 -8.04785 0.779567 2.34277 2.29945 1.15269 2.31883 3.77863 1.15655 0.901616 -5.66493 0.995109 -0.307273 -6.43943 -0.320996 92.5626 -14.3397 -102.244 -58.351 63.1701 16.3811 -35.5183 -7.08937e-05 -3.52382e-05 2.75658 -8.84927 7.463 -30.9004 26.556 14.9798 1.06543 -0.266597 -0.131661 0.792807 -0.1914 -0.0912448 -5.47213 1.31284 -13.4504 -0.0188236 -7.13967e-05 8.74231e-06 0.029289 -2.09004e-06 2.3645e-07 -0.0100757 2.00248e-06 6.82436e-07 0.00997256 1.59849e-05 0.114893 -0.057506 -0.000113926 6.29299e-06 0.0973884 1.28244e-06 -5.8488e-07 -0.0368815 -3.4064e-06 1.73161e-06 0.0190656 3.19688e-05 0.106438 0.017852 6.2404e-06 3.57886e-06 -0.02539 0.000279047 7.68979e-06 -0.0129253 -1.66601e-06 3.15975e-06 -0.0915905 -3.06339e-05 0.0167349 0.0596222 0.000537184 8.80897e-06 0.0969695 6.95449e-05 1.96336e-07 -0.0569261 -1.68533e-06 -1.29343e-06 -0.00472921 -1.26779e-05 0.179849 -90.0469 -17.2802 100.418 7.91572 71.5359 38.0502 27.5397 -7.0565e-05 5.22333e-05 -4.57165 -4.50453 -6.81304 30.7775 26.5578 -14.9111 -0.940956 -0.23784 0.117537 -0.695801 -0.175995 0.0843329 4.6663 1.17119 14.0587 -0.00505623 7.37136e-05 -2.78425e-06 0.0120443 0.000265451 -4.65804e-06 -0.00759022 3.74616e-05 2.24045e-06 -0.00149843 1.71583e-06 -0.0432619 -0.00363376 4.62463e-05 -2.64906e-06 0.00242536 -1.60357e-05 -1.09008e-07 0.00237808 -5.26646e-05 2.74188e-06 0.00320975 -6.43922e-06 -0.117358 0.000721539 6.78827e-05 -7.62903e-06 -1.59028e-15 -1.59028e-15 6.36111e-15 -1.02272e-06 -3.80011e-06 3.98546e-06 0.00184053 -2.99315e-05 0.0565491 0.234316 -0.000570979 8.33192e-07 -0.0241443 7.19783e-05 -4.41286e-06 -0.0076848 1.91339e-05 6.21592e-06 -0.0338465 4.85089e-05 -0.0897754 -172.051 -15.7982 -7.082 0.00075233 -8.41955 -0.00921162 -27.4378 64.9296 28.3008 -2.47673e-05 42.0068 1.3094e-05 -171.687 25.9126 -10.3288 0.00052708 -8.13592 0.0465637 -12.0318 54.6569 4.2496 -3.2337e-05 47.457 1.73686e-05 
-7.37139 100.09 258.054 -3.85419 0.0923063 -5.08366 1.09093 -8.07017 0.783814 2.19575 2.26624 1.18932 2.1184 3.73405 1.19964 1.17337 -5.65056 0.876017 -0.300187 -6.57004 -0.484488 92.7291 -14.3836 -102.331 -58.1418 63.6395 16.0101 -34.764 -7.65123e-05 -3.5457e-05 2.68067 -8.76794 7.36231 -30.9004 26.556 14.9798 1.06543 -0.266602 -0.131655 0.792804 -0.191398 -0.0912425 -5.47213 1.31284 -13.4504 -0.0188253 -7.33828e-05 1.27724e-05 0.0292889 2.03111e-06 -7.3749e-06 -0.010073 6.85214e-07 5.49219e-07 0.00997686 1.81369e-05 0.114892 -0.0575088 -0.000112596 6.98339e-06 0.0973909 -1.84312e-08 -4.17856e-07 -0.0368822 -4.23089e-06 4.58204e-06 0.0190698 3.72911e-05 0.106428 0.0178499 4.18805e-06 8.29491e-06 -0.0253816 0.000256124 1.47881e-06 -0.0129285 4.59476e-06 5.29427e-06 -0.0915902 -3.11875e-05 0.0167309 0.0596205 0.000535798 6.79923e-06 0.0969631 7.86564e-06 4.14238e-06 -0.0569218 4.73617e-07 -6.68035e-06 -0.00472984 -1.04267e-05 0.179853 -89.8908 -17.2745 100.315 7.48173 71.8704 39.8386 23.9103 5.85179e-05 3.74235e-05 -4.68042 -3.69366 -7.91122 30.7775 26.5578 -14.9111 -0.940963 -0.237852 0.117538 -0.695801 -0.175996 0.0843334 4.66631 1.17119 14.0587 -0.00505594 7.5442e-05 2.20997e-06 0.0120376 0.00019228 -4.80238e-06 -0.0075861 4.05125e-05 2.73008e-06 -0.00149857 -8.87871e-07 -0.0432643 -0.00363262 4.4051e-05 -1.48149e-06 0.00242238 -2.2767e-05 2.75392e-06 0.00237521 -4.86228e-05 -2.98301e-06 0.00321191 -9.01105e-06 -0.117352 0.00072209 6.79579e-05 -8.66903e-07 1.54487e-31 -2.78299e-15 3.18055e-15 1.79581e-06 -2.88237e-06 -9.71298e-08 0.00183525 -3.11501e-05 0.0565435 0.234311 -0.000573344 2.95391e-06 -0.0241392 6.70739e-05 -1.35443e-06 -0.007689 1.62288e-05 4.94695e-06 -0.0338465 5.26195e-05 -0.0897748 -172.755 -17.3089 -4.95033 -0.000203414 -11.057 -0.0165065 -20.2086 65.7373 21.4702 -4.05105e-05 46.0787 2.38226e-05 -172.592 26.2772 -9.55441 0.000653055 -10.4784 0.0489948 -11.6475 55.3184 4.91394 -1.90639e-05 48.027 1.41366e-05 
-6.89285 99.8856 263.181 -2.65905 0.104247 -5.02776 0.774325 -8.13544 0.824713 1.46622 2.1219 1.38515 1.48492 3.60284 1.38978 1.35071 -5.93834 0.631614 -0.431951 -6.56651 -0.766201 93.1418 -14.5867 -102.209 -56.014 64.5516 13.8846 -33.4199 -0.000113204 -4.79597e-05 2.91172 -8.4369 7.20207 -30.9004 26.556 14.9798 1.06542 -0.266606 -0.131644 0.792802 -0.191403 -0.0912413 -5.47213 1.31284 -13.4504 -0.0188249 -6.88441e-05 6.50718e-06 0.0292907 2.19298e-07 -2.05002e-06 -0.010072 -8.77827e-07 -2.61421e-06 0.00997907 2.18683e-05 0.114899 -0.0575068 -0.000110869 4.98518e-06 0.0973908 7.96912e-07 2.38878e-06 -0.0368842 -6.36717e-06 -1.35151e-06 0.0190698 4.29781e-05 0.106428 0.0178533 8.55891e-06 5.5113e-06 -0.0253821 0.000271974 1.67601e-06 -0.0129252 1.59005e-06 3.95723e-06 -0.0915916 -2.59728e-05 0.0167315 0.0596227 0.000536433 3.16649e-06 0.0969719 6.96361e-05 6.14407e-06 -0.0569221 -3.50806e-07 -5.11792e-06 -0.00473185 -1.34587e-05 0.179852 -90.2805 -17.3074 99.8911 6.43866 71.8724 41.9982 20.5165 2.45399e-05 1.11235e-05 -5.53268 -2.82885 -8.99735 30.7775 26.5578 -14.9111 -0.940964 -0.237847 0.117537 -0.695802 -0.175998 0.0843303 4.6663 1.17119 14.0587 -0.00505091 7.75385e-05 6.80915e-06 0.0120375 0.000163107 -8.19128e-06 -0.00758738 3.87584e-05 7.46261e-06 -0.00149786 -9.57302e-07 -0.0432683 -0.003628 4.74681e-05 7.51269e-07 0.0024226 -2.44189e-05 3.66036e-06 0.00237322 -4.75592e-05 -5.84662e-06 0.00321049 -6.08878e-06 -0.117351 0.000722906 7.04052e-05 -1.80658e-06 -9.76981e-07 1.06737e-06 -5.70775e-06 9.76981e-07 -1.06737e-06 5.70775e-06 0.00183686 -2.93844e-05 0.0565461 0.234315 -0.000572125 8.26428e-06 -0.0241399 6.16018e-05 -6.57469e-06 -0.00769022 1.43782e-05 7.78979e-06 -0.0338487 5.37382e-05 -0.0897789 -174.935 -17.3346 -2.636 -0.000178292 -15.9174 -0.00924796 -11.2482 64.8378 12.7327 -4.93481e-05 52.4255 3.5824e-05 -174.899 26.8948 -9.00512 0.000216074 -15.3437 0.0327559 -9.47576 51.0483 7.74033 -1.97587e-05 47.751 1.2144e-05 
-6.33574 99.8703 268.371 -0.818114 0.309348 -5.09397 0.29906 -8.25815 0.899072 0.597043 1.85626 1.65654 0.53433 3.35376 1.69994 1.67554 -6.22827 0.394267 -0.493521 -6.57103 -0.873287 93.6239 -15.1013 -102.474 -53.9187 65.4848 11.4981 -30.9327 -8.66222e-05 -1.77052e-05 3.09267 -8.16337 7.62653 -30.9004 26.556 14.9798 1.06543 -0.2666 -0.13165 0.7928 -0.191405 -0.0912415 -5.47213 1.31284 -13.4504 -0.018825 -6.64997e-05 3.02781e-06 0.0292927 -2.34015e-06 -1.09188e-07 -0.0100702 1.34225e-07 1.60509e-06 0.00997424 1.72773e-05 0.114892 -0.0575058 -0.000110667 3.83183e-06 0.0973929 -1.22638e-06 -6.10102e-07 -0.0368838 -5.526e-06 -5.16154e-06 0.0190666 4.08491e-05 0.106436 0.0178559 8.53877e-06 6.9442e-07 -0.0253863 0.000289354 -1.07197e-07 -0.0129204 3.7101e-07 1.54546e-06 -0.0915957 -2.64482e-05 0.0167362 0.0596254 0.000537018 6.91123e-06 0.0969743 0.000129018 -2.05744e-06 -0.0569243 -3.24892e-06 3.36292e-06 -0.00472833 -1.2416e-05 0.179843 -90.6193 -17.3852 99.785 5.96095 71.7189 43.1836 17.8819 -7.22995e-05 2.35523e-05 -6.28925 -2.6348 -10.5294 30.7775 26.5578 -14.9111 -0.940955 -0.237833 0.117542 -0.695802 -0.175999 0.0843298 4.66631 1.17119 14.0587 -0.00504887 7.75887e-05 3.02235e-06 0.0120385 0.000249093 -4.10402e-06 -0.00759077 3.39365e-05 2.41789e-06 -0.0014964 -3.62582e-06 -0.0432684 -0.00362783 5.03672e-05 3.75671e-06 0.00242498 -1.87248e-05 -1.00814e-06 0.00237438 -5.10802e-05 -2.73436e-06 0.0032054 -1.23802e-05 -0.117351 0.000720994 7.13078e-05 -2.81431e-06 -9.93923e-16 9.93923e-17 -0 -3.97569e-16 -1.59028e-15 6.36111e-15 0.00183956 -3.32335e-05 0.0565491 0.234318 -0.000569201 6.59692e-06 -0.0241419 0.00013279 -3.34639e-06 -0.00768692 1.46467e-05 6.81381e-06 -0.033853 4.65098e-05 -0.0897776 -178.034 -15.2222 -0.729058 -0.00029629 -23.1207 0.000474895 -4.10469 59.7261 5.51781 -8.48502e-05 63.8898 7.31199e-05 -177.824 27.8369 -6.51682 -0.00437167 -20.6236 0.0274608 -5.17515 47.3651 5.99696 -2.26615e-05 45.9308 1.15022e-05 
-5.88116 100.085 273.555 1.02794 0.221894 -5.05739 -0.219002 -8.32815 0.995783 -0.467744 1.70567 2.1061 -0.502282 3.20502 2.06752 1.86912 -6.44203 -0.00133807 -0.478769 -6.85325 -1.30091 93.1618 -15.3019 -103.065 -52.9758 67.6905 11.4319 -27.6765 -8.90082e-05 -3.49105e-05 3.17607 -8.24761 8.73984 -30.9004 26.556 14.9798 1.06544 -0.266597 -0.131656 0.7928 -0.191402 -0.0912384 -5.47213 1.31284 -13.4504 -0.0188242 -6.96928e-05 -6.5555e-07 0.0292914 5.13639e-07 4.06056e-07 -0.0100713 -3.44343e-07 3.0101e-06 0.00997189 1.69278e-05 0.114888 -0.0575059 -0.000111626 8.35238e-07 0.097391 2.80489e-06 -6.82953e-06 -0.0368827 -5.21753e-06 -2.22857e-07 0.01907 3.63563e-05 0.106441 0.0178508 6.72117e-06 -3.85688e-06 -0.0253813 0.00036424 9.20834e-08 -0.0129234 5.00373e-06 5.52478e-06 -0.0915967 -3.27528e-05 0.0167327 0.0596262 0.000535804 2.98862e-06 0.0969708 8.56923e-05 -2.79943e-06 -0.0569266 -6.72336e-06 3.03253e-06 -0.00472943 -9.03621e-06 0.179845 -89.6941 -16.8558 100.258 6.77306 72.5652 42.8342 15.2389 -2.80725e-06 1.21814e-05 -6.05332 -2.4299 -11.6257 30.7775 26.5578 -14.9111 -0.940955 -0.237836 0.117543 -0.695804 -0.176001 0.0843308 4.66631 1.17119 14.0587 -0.00505026 6.70743e-05 5.1122e-07 0.0120399 0.00028875 4.31829e-06 -0.00759215 3.16897e-05 -3.33806e-06 -0.00149582 -1.57733e-06 -0.0432638 -0.00362935 3.81535e-05 6.96982e-06 0.00242548 -1.77959e-05 -4.73066e-06 0.00237283 -5.00623e-05 1.22498e-06 0.00320769 -1.54223e-05 -0.117355 0.00072057 5.96833e-05 4.70585e-08 -4.68437e-07 7.09252e-07 6.91607e-08 -4.03448e-06 -6.22988e-06 8.5296e-08 0.00183642 -3.39195e-05 0.0565463 0.234313 -0.000579208 5.85933e-06 -0.0241382 0.000132909 3.16914e-06 -0.00768666 1.53288e-05 2.7032e-06 -0.0338515 4.53622e-05 -0.0897704 178.884 -11.5421 0.566298 0.000828958 -31.9281 0.00499361 -0.695718 49.433 1.54864 -0.000179563 77.1753 0.000167106 179.285 27.5297 -4.44089 -0.00429901 -25.5505 0.0152412 -1.95419 49.8685 3.76744 -2.11047e-05 44.2857 8.41208e-06 
-5.42344 100.382 278.499 2.77254 -0.292142 -4.61148 -0.711472 -8.29022 0.980112 -1.42227 1.78704 2.18699 -1.48234 3.27016 2.20163 1.99588 -6.385 -0.425192 -0.579875 -6.72352 -1.3485 92.6837 -15.3844 -102.995 -50.3596 70.3571 10.5914 -25.0216 9.26898e-06 1.39744e-05 4.20511 -6.65057 8.90432 -30.9004 26.556 14.9798 1.06543 -0.266597 -0.131655 0.792806 -0.191402 -0.0912392 -5.47213 1.31284 -13.4504 -0.0188236 -7.17908e-05 5.02826e-06 0.0292873 8.16269e-07 -1.05412e-06 -0.0100707 -7.65361e-07 1.52778e-06 0.00997545 1.9875e-05 0.114895 -0.0575078 -0.00011271 1.31912e-06 0.0973911 2.03733e-06 -1.12988e-06 -0.0368862 -1.33037e-06 -2.21959e-06 0.0190729 3.33958e-05 0.106438 0.0178483 6.74792e-06 -2.63404e-07 -0.0253824 0.000316995 1.62783e-07 -0.0129249 3.1779e-06 1.05387e-05 -0.0915912 -3.24466e-05 0.0167327 0.059624 0.000536862 3.36164e-06 0.0969743 7.53777e-05 6.88366e-07 -0.0569295 -2.66755e-06 -1.93913e-06 -0.0047307 -8.32854e-06 0.17985 -88.8453 -15.8356 100.39 6.59481 73.3489 42.7032 13.8449 3.56303e-05 -1.84243e-05 -6.09944 -1.38377 -11.4514 30.7775 26.5578 -14.9111 -0.940958 -0.237835 0.117541 -0.695804 -0.176 0.0843291 4.6663 1.17118 14.0587 -0.00504699 6.90707e-05 1.48429e-06 0.0120374 0.000173543 2.12452e-06 -0.00759109 3.00328e-05 -6.60351e-06 -0.00149461 5.15673e-06 -0.0432597 -0.0036249 4.00519e-05 3.2983e-06 0.00242377 -1.71754e-05 1.64753e-06 0.00237114 -4.84787e-05 -4.14476e-06 0.00321221 -6.83725e-06 -0.117353 0.000723628 6.17233e-05 -1.65402e-06 3.07306e-06 1.51789e-06 -1.52469e-07 3.30715e-06 1.16302e-06 -1.88336e-07 0.00183798 -2.77701e-05 0.0565451 0.234315 -0.000576907 6.2742e-06 -0.0241375 6.55816e-05 1.76311e-06 -0.00768507 1.61732e-05 5.56406e-06 -0.0338501 4.87454e-05 -0.0897757 175.953 -6.58329 1.44088 0.00113644 -42.0836 0.0285946 1.46163 36.9107 0.243217 -0.000142769 74.636 0.000123447 176.474 25.5139 -3.37652 0.000640957 -28.4511 -0.00138119 -0.516209 53.8893 3.70177 -1.77257e-05 43.0122 6.14922e-06 
